<?xml version="1.0" encoding="UTF-8" standalone="no"?>
<svg width="200px" height="200px" viewBox="0 0 200 200" version="1.1" xmlns="http://www.w3.org/2000/svg" xmlns:xlink="http://www.w3.org/1999/xlink">
    <!-- Generator: Sketch 41.1 (35376) - http://www.bohemiancoding.com/sketch -->
    <title>icons-outlines</title>
    <desc>Created with Sketch.</desc>
    <defs>
        <circle id="path-1" cx="20" cy="20" r="20"></circle>
        <mask id="mask-2" maskContentUnits="userSpaceOnUse" maskUnits="objectBoundingBox" x="0" y="0" width="40" height="40" fill="white">
            <use xlink:href="#path-1"></use>
        </mask>
        <circle id="path-3" cx="20" cy="20" r="20"></circle>
        <mask id="mask-4" maskContentUnits="userSpaceOnUse" maskUnits="objectBoundingBox" x="0" y="0" width="40" height="40" fill="white">
            <use xlink:href="#path-3"></use>
        </mask>
        <circle id="path-5" cx="20" cy="20" r="20"></circle>
        <mask id="mask-6" maskContentUnits="userSpaceOnUse" maskUnits="objectBoundingBox" x="0" y="0" width="40" height="40" fill="white">
            <use xlink:href="#path-5"></use>
        </mask>
        <circle id="path-7" cx="20" cy="20" r="20"></circle>
        <mask id="mask-8" maskContentUnits="userSpaceOnUse" maskUnits="objectBoundingBox" x="0" y="0" width="40" height="40" fill="white">
            <use xlink:href="#path-7"></use>
        </mask>
        <circle id="path-9" cx="20" cy="20" r="20"></circle>
        <mask id="mask-10" maskContentUnits="userSpaceOnUse" maskUnits="objectBoundingBox" x="0" y="0" width="40" height="40" fill="white">
            <use xlink:href="#path-9"></use>
        </mask>
    </defs>
    <g id="STUI-Timed-Tutored" stroke="none" stroke-width="1" fill="none" fill-rule="evenodd">
        <g id="icons-outlines">
            <g id="A">
                <g id="A-question-answer-button">
                    <g id="Icon/question-answer-bg-disabled" fill="#E2E2E2" opacity="0.570020989">
                        <circle id="Oval" cx="20" cy="20" r="20"></circle>
                    </g>
                    <path d="M24.92,27 L26.56,27 L20.58,13.02 L14.44,27 L16.08,27 L17.68,23.24 L23.36,23.24 L24.92,27 Z M18.26,21.84 L20.54,16.5 L22.78,21.84 L18.26,21.84 Z" id="A" fill="#555555"></path>
                </g>
                <g id="A-you-select" transform="translate(40.000000, 0.000000)">
                    <g id="Icon/question-answer-bg-selected" fill="#232F84">
                        <circle id="Oval" cx="20" cy="20" r="20"></circle>
                    </g>
                    <path d="M24.92,27 L26.56,27 L20.58,13.02 L14.44,27 L16.08,27 L17.68,23.24 L23.36,23.24 L24.92,27 Z M18.26,21.84 L20.54,16.5 L22.78,21.84 L18.26,21.84 Z" id="A" fill="#FFFFFF"></path>
                </g>
                <g id="A-this-is-correct" transform="translate(160.000000, 0.000000)">
                    <g id="Icon/question-answer-bg-this-is-correct" stroke="#3D9B35" stroke-width="4" fill="#FFFFFF">
                        <use id="Oval" mask="url(#mask-2)" xlink:href="#path-1"></use>
                    </g>
                    <path d="M24.92,27 L26.56,27 L20.58,13.02 L14.44,27 L16.08,27 L17.68,23.24 L23.36,23.24 L24.92,27 Z M18.26,21.84 L20.54,16.5 L22.78,21.84 L18.26,21.84 Z" id="A" fill="#555555"></path>
                </g>
                <g id="A-you-got-wrong" transform="translate(80.000000, 0.000000)">
                    <g id="Icon/question-answer-bg-wrong" fill="#D6083B">
                        <circle id="Oval" cx="20" cy="20" r="20"></circle>
                    </g>
                    <path d="M24.92,27 L26.56,27 L20.58,13.02 L14.44,27 L16.08,27 L17.68,23.24 L23.36,23.24 L24.92,27 Z M18.26,21.84 L20.54,16.5 L22.78,21.84 L18.26,21.84 Z" id="A" fill="#FFFFFF"></path>
                </g>
                <g id="A-you-got-correct" transform="translate(120.000000, 0.000000)">
                    <g id="Icon/question-answer-bg-correct" fill="#3D9B35">
                        <circle id="Oval" cx="20" cy="20" r="20"></circle>
                    </g>
                    <path d="M24.92,27 L26.56,27 L20.58,13.02 L14.44,27 L16.08,27 L17.68,23.24 L23.36,23.24 L24.92,27 Z M18.26,21.84 L20.54,16.5 L22.78,21.84 L18.26,21.84 Z" id="A" fill="#FFFFFF"></path>
                </g>
            </g>
            <g id="B" transform="translate(0.000000, 40.000000)">
                <g id="B-question-answer-button">
                    <g id="Icon/question-answer-bg-disabled" fill="#E2E2E2" opacity="0.570020989">
                        <circle id="Oval" cx="20" cy="20" r="20"></circle>
                    </g>
                    <path d="M16.92,13.66 L16.92,27 L20.24,27 C21.16,27 22.38,26.96 23.44,26.12 C24.16,25.56 24.8,24.52 24.8,23.24 C24.8,21.96 24.12,20.34 22.26,19.88 C23.44,19.08 23.58,17.92 23.58,17.26 C23.58,15.64 22.8,14.82 22.38,14.5 C21.4,13.72 20.06,13.66 19.32,13.66 L16.92,13.66 Z M18.4,15.06 L19.56,15.06 C19.98,15.06 22.14,15.1 22.14,17.3 C22.14,19.36 20.3,19.52 19.52,19.52 L18.4,19.52 L18.4,15.06 Z M18.4,20.84 L19.92,20.84 C20.98,20.84 21.68,20.96 22.18,21.24 C22.7,21.52 23.32,22.14 23.32,23.2 C23.32,24 22.96,24.66 22.44,25.04 C21.8,25.54 20.96,25.6 20.1,25.6 L18.4,25.6 L18.4,20.84 Z" id="A" fill="#555555"></path>
                </g>
                <g id="B-you-select" transform="translate(40.000000, 0.000000)">
                    <g id="Icon/question-answer-bg-selected" fill="#232F84">
                        <circle id="Oval" cx="20" cy="20" r="20"></circle>
                    </g>
                    <path d="M16.92,13.66 L16.92,27 L20.24,27 C21.16,27 22.38,26.96 23.44,26.12 C24.16,25.56 24.8,24.52 24.8,23.24 C24.8,21.96 24.12,20.34 22.26,19.88 C23.44,19.08 23.58,17.92 23.58,17.26 C23.58,15.64 22.8,14.82 22.38,14.5 C21.4,13.72 20.06,13.66 19.32,13.66 L16.92,13.66 Z M18.4,15.06 L19.56,15.06 C19.98,15.06 22.14,15.1 22.14,17.3 C22.14,19.36 20.3,19.52 19.52,19.52 L18.4,19.52 L18.4,15.06 Z M18.4,20.84 L19.92,20.84 C20.98,20.84 21.68,20.96 22.18,21.24 C22.7,21.52 23.32,22.14 23.32,23.2 C23.32,24 22.96,24.66 22.44,25.04 C21.8,25.54 20.96,25.6 20.1,25.6 L18.4,25.6 L18.4,20.84 Z" id="A" fill="#FFFFFF"></path>
                </g>
                <g id="B-this-is-correct" transform="translate(160.000000, 0.000000)">
                    <g id="Icon/question-answer-bg-this-is-correct" stroke="#3D9B35" stroke-width="4" fill="#FFFFFF">
                        <use id="Oval" mask="url(#mask-4)" xlink:href="#path-3"></use>
                    </g>
                    <path d="M16.92,13.66 L16.92,27 L20.24,27 C21.16,27 22.38,26.96 23.44,26.12 C24.16,25.56 24.8,24.52 24.8,23.24 C24.8,21.96 24.12,20.34 22.26,19.88 C23.44,19.08 23.58,17.92 23.58,17.26 C23.58,15.64 22.8,14.82 22.38,14.5 C21.4,13.72 20.06,13.66 19.32,13.66 L16.92,13.66 Z M18.4,15.06 L19.56,15.06 C19.98,15.06 22.14,15.1 22.14,17.3 C22.14,19.36 20.3,19.52 19.52,19.52 L18.4,19.52 L18.4,15.06 Z M18.4,20.84 L19.92,20.84 C20.98,20.84 21.68,20.96 22.18,21.24 C22.7,21.52 23.32,22.14 23.32,23.2 C23.32,24 22.96,24.66 22.44,25.04 C21.8,25.54 20.96,25.6 20.1,25.6 L18.4,25.6 L18.4,20.84 Z" id="A" fill="#555555"></path>
                </g>
                <g id="B-you-got-wrong" transform="translate(80.000000, 0.000000)">
                    <g id="Icon/question-answer-bg-wrong" fill="#D6083B">
                        <circle id="Oval" cx="20" cy="20" r="20"></circle>
                    </g>
                    <path d="M16.92,13.66 L16.92,27 L20.24,27 C21.16,27 22.38,26.96 23.44,26.12 C24.16,25.56 24.8,24.52 24.8,23.24 C24.8,21.96 24.12,20.34 22.26,19.88 C23.44,19.08 23.58,17.92 23.58,17.26 C23.58,15.64 22.8,14.82 22.38,14.5 C21.4,13.72 20.06,13.66 19.32,13.66 L16.92,13.66 Z M18.4,15.06 L19.56,15.06 C19.98,15.06 22.14,15.1 22.14,17.3 C22.14,19.36 20.3,19.52 19.52,19.52 L18.4,19.52 L18.4,15.06 Z M18.4,20.84 L19.92,20.84 C20.98,20.84 21.68,20.96 22.18,21.24 C22.7,21.52 23.32,22.14 23.32,23.2 C23.32,24 22.96,24.66 22.44,25.04 C21.8,25.54 20.96,25.6 20.1,25.6 L18.4,25.6 L18.4,20.84 Z" id="A" fill="#FFFFFF"></path>
                </g>
                <g id="B-you-got-correct" transform="translate(120.000000, 0.000000)">
                    <g id="Icon/question-answer-bg-correct" fill="#3D9B35">
                        <circle id="Oval" cx="20" cy="20" r="20"></circle>
                    </g>
                    <path d="M16.92,13.66 L16.92,27 L20.24,27 C21.16,27 22.38,26.96 23.44,26.12 C24.16,25.56 24.8,24.52 24.8,23.24 C24.8,21.96 24.12,20.34 22.26,19.88 C23.44,19.08 23.58,17.92 23.58,17.26 C23.58,15.64 22.8,14.82 22.38,14.5 C21.4,13.72 20.06,13.66 19.32,13.66 L16.92,13.66 Z M18.4,15.06 L19.56,15.06 C19.98,15.06 22.14,15.1 22.14,17.3 C22.14,19.36 20.3,19.52 19.52,19.52 L18.4,19.52 L18.4,15.06 Z M18.4,20.84 L19.92,20.84 C20.98,20.84 21.68,20.96 22.18,21.24 C22.7,21.52 23.32,22.14 23.32,23.2 C23.32,24 22.96,24.66 22.44,25.04 C21.8,25.54 20.96,25.6 20.1,25.6 L18.4,25.6 L18.4,20.84 Z" id="A" fill="#FFFFFF"></path>
                </g>
            </g>
            <g id="C" transform="translate(0.000000, 80.000000)">
                <g id="C-question-answer-button">
                    <g id="Icon/question-answer-bg-disabled" fill="#E2E2E2" opacity="0.570020989">
                        <circle id="Oval" cx="20" cy="20" r="20"></circle>
                    </g>
                    <path d="M24.96,14.76 C23.36,13.54 21.82,13.44 21.02,13.44 C17.02,13.44 14.04,16.4 14.04,20.38 C14.04,24.24 16.98,27.24 20.94,27.24 C21.94,27.24 23.48,27 24.96,25.94 L24.96,24.1 C24.72,24.34 24.18,24.84 23.42,25.22 C22.72,25.58 21.84,25.84 20.94,25.84 C18.5,25.84 15.56,24.02 15.56,20.4 C15.56,17.32 17.84,14.84 20.92,14.84 C21.7,14.84 22.52,15.04 23.22,15.36 C23.9,15.68 24.54,16.18 24.96,16.6 L24.96,14.76 Z" id="C" fill="#555555"></path>
                </g>
                <g id="C-you-select" transform="translate(40.000000, 0.000000)">
                    <g id="Icon/question-answer-bg-selected" fill="#232F84">
                        <circle id="Oval" cx="20" cy="20" r="20"></circle>
                    </g>
                    <path d="M24.96,14.76 C23.36,13.54 21.82,13.44 21.02,13.44 C17.02,13.44 14.04,16.4 14.04,20.38 C14.04,24.24 16.98,27.24 20.94,27.24 C21.94,27.24 23.48,27 24.96,25.94 L24.96,24.1 C24.72,24.34 24.18,24.84 23.42,25.22 C22.72,25.58 21.84,25.84 20.94,25.84 C18.5,25.84 15.56,24.02 15.56,20.4 C15.56,17.32 17.84,14.84 20.92,14.84 C21.7,14.84 22.52,15.04 23.22,15.36 C23.9,15.68 24.54,16.18 24.96,16.6 L24.96,14.76 Z" id="C" fill="#FFFFFF"></path>
                </g>
                <g id="C-this-is-correct" transform="translate(160.000000, 0.000000)">
                    <g id="Icon/question-answer-bg-this-is-correct" stroke="#3D9B35" stroke-width="4" fill="#FFFFFF">
                        <use id="Oval" mask="url(#mask-6)" xlink:href="#path-5"></use>
                    </g>
                    <path d="M24.96,14.76 C23.36,13.54 21.82,13.44 21.02,13.44 C17.02,13.44 14.04,16.4 14.04,20.38 C14.04,24.24 16.98,27.24 20.94,27.24 C21.94,27.24 23.48,27 24.96,25.94 L24.96,24.1 C24.72,24.34 24.18,24.84 23.42,25.22 C22.72,25.58 21.84,25.84 20.94,25.84 C18.5,25.84 15.56,24.02 15.56,20.4 C15.56,17.32 17.84,14.84 20.92,14.84 C21.7,14.84 22.52,15.04 23.22,15.36 C23.9,15.68 24.54,16.18 24.96,16.6 L24.96,14.76 Z" id="C" fill="#555555"></path>
                </g>
                <g id="C-you-got-wrong" transform="translate(80.000000, 0.000000)">
                    <g id="Icon/question-answer-bg-wrong" fill="#D6083B">
                        <circle id="Oval" cx="20" cy="20" r="20"></circle>
                    </g>
                    <path d="M24.96,14.76 C23.36,13.54 21.82,13.44 21.02,13.44 C17.02,13.44 14.04,16.4 14.04,20.38 C14.04,24.24 16.98,27.24 20.94,27.24 C21.94,27.24 23.48,27 24.96,25.94 L24.96,24.1 C24.72,24.34 24.18,24.84 23.42,25.22 C22.72,25.58 21.84,25.84 20.94,25.84 C18.5,25.84 15.56,24.02 15.56,20.4 C15.56,17.32 17.84,14.84 20.92,14.84 C21.7,14.84 22.52,15.04 23.22,15.36 C23.9,15.68 24.54,16.18 24.96,16.6 L24.96,14.76 Z" id="C" fill="#FFFFFF"></path>
                </g>
                <g id="C-you-got-correct" transform="translate(120.000000, 0.000000)">
                    <g id="Icon/question-answer-bg-correct" fill="#3D9B35">
                        <circle id="Oval" cx="20" cy="20" r="20"></circle>
                    </g>
                    <path d="M24.96,14.76 C23.36,13.54 21.82,13.44 21.02,13.44 C17.02,13.44 14.04,16.4 14.04,20.38 C14.04,24.24 16.98,27.24 20.94,27.24 C21.94,27.24 23.48,27 24.96,25.94 L24.96,24.1 C24.72,24.34 24.18,24.84 23.42,25.22 C22.72,25.58 21.84,25.84 20.94,25.84 C18.5,25.84 15.56,24.02 15.56,20.4 C15.56,17.32 17.84,14.84 20.92,14.84 C21.7,14.84 22.52,15.04 23.22,15.36 C23.9,15.68 24.54,16.18 24.96,16.6 L24.96,14.76 Z" id="C" fill="#FFFFFF"></path>
                </g>
            </g>
            <g id="D" transform="translate(0.000000, 120.000000)">
                <g id="D-question-answer-button">
                    <g id="Icon/question-answer-bg-disabled" fill="#E2E2E2" opacity="0.570020989">
                        <circle id="Oval" cx="20" cy="20" r="20"></circle>
                    </g>
                    <path d="M15.9,27 L18.6,27 C20.98,27 22.26,26.5 23.48,25.46 C24.44,24.64 25.82,23.14 25.82,20.34 C25.82,17.94 24.76,16.24 23.54,15.22 C21.86,13.8 19.96,13.66 18.62,13.66 L15.9,13.66 L15.9,27 Z M17.38,15.06 L18.68,15.06 C22.06,15.06 24.3,17.14 24.3,20.34 C24.3,22.24 23.5,23.56 22.5,24.4 C21.2,25.48 19.74,25.6 18.68,25.6 L17.38,25.6 L17.38,15.06 Z" id="A" fill="#555555"></path>
                </g>
                <g id="D-you-select" transform="translate(40.000000, 0.000000)">
                    <g id="Icon/question-answer-bg-selected" fill="#232F84">
                        <circle id="Oval" cx="20" cy="20" r="20"></circle>
                    </g>
                    <path d="M15.9,27 L18.6,27 C20.98,27 22.26,26.5 23.48,25.46 C24.44,24.64 25.82,23.14 25.82,20.34 C25.82,17.94 24.76,16.24 23.54,15.22 C21.86,13.8 19.96,13.66 18.62,13.66 L15.9,13.66 L15.9,27 Z M17.38,15.06 L18.68,15.06 C22.06,15.06 24.3,17.14 24.3,20.34 C24.3,22.24 23.5,23.56 22.5,24.4 C21.2,25.48 19.74,25.6 18.68,25.6 L17.38,25.6 L17.38,15.06 Z" id="A" fill="#FFFFFF"></path>
                </g>
                <g id="D-this-is-correct" transform="translate(160.000000, 0.000000)">
                    <g id="Icon/question-answer-bg-this-is-correct" stroke="#3D9B35" stroke-width="4" fill="#FFFFFF">
                        <use id="Oval" mask="url(#mask-8)" xlink:href="#path-7"></use>
                    </g>
                    <path d="M15.9,27 L18.6,27 C20.98,27 22.26,26.5 23.48,25.46 C24.44,24.64 25.82,23.14 25.82,20.34 C25.82,17.94 24.76,16.24 23.54,15.22 C21.86,13.8 19.96,13.66 18.62,13.66 L15.9,13.66 L15.9,27 Z M17.38,15.06 L18.68,15.06 C22.06,15.06 24.3,17.14 24.3,20.34 C24.3,22.24 23.5,23.56 22.5,24.4 C21.2,25.48 19.74,25.6 18.68,25.6 L17.38,25.6 L17.38,15.06 Z" id="A" fill="#555555"></path>
                </g>
                <g id="D-you-got-wrong" transform="translate(80.000000, 0.000000)">
                    <g id="Icon/question-answer-bg-wrong" fill="#D6083B">
                        <circle id="Oval" cx="20" cy="20" r="20"></circle>
                    </g>
                    <path d="M15.9,27 L18.6,27 C20.98,27 22.26,26.5 23.48,25.46 C24.44,24.64 25.82,23.14 25.82,20.34 C25.82,17.94 24.76,16.24 23.54,15.22 C21.86,13.8 19.96,13.66 18.62,13.66 L15.9,13.66 L15.9,27 Z M17.38,15.06 L18.68,15.06 C22.06,15.06 24.3,17.14 24.3,20.34 C24.3,22.24 23.5,23.56 22.5,24.4 C21.2,25.48 19.74,25.6 18.68,25.6 L17.38,25.6 L17.38,15.06 Z" id="A" fill="#FFFFFF"></path>
                </g>
                <g id="D-you-got-correct" transform="translate(120.000000, 0.000000)">
                    <g id="Icon/question-answer-bg-correct" fill="#3D9B35">
                        <circle id="Oval" cx="20" cy="20" r="20"></circle>
                    </g>
                    <path d="M15.9,27 L18.6,27 C20.98,27 22.26,26.5 23.48,25.46 C24.44,24.64 25.82,23.14 25.82,20.34 C25.82,17.94 24.76,16.24 23.54,15.22 C21.86,13.8 19.96,13.66 18.62,13.66 L15.9,13.66 L15.9,27 Z M17.38,15.06 L18.68,15.06 C22.06,15.06 24.3,17.14 24.3,20.34 C24.3,22.24 23.5,23.56 22.5,24.4 C21.2,25.48 19.74,25.6 18.68,25.6 L17.38,25.6 L17.38,15.06 Z" id="A" fill="#FFFFFF"></path>
                </g>
            </g>
            <g id="E" transform="translate(0.000000, 160.000000)">
                <g id="E-question-answer-button">
                    <g id="Icon/question-answer-bg-disabled" fill="#E2E2E2" opacity="0.570020989">
                        <circle id="Oval" cx="20" cy="20" r="20"></circle>
                    </g>
                    <polygon id="A" fill="#555555" points="24.32 13.66 17.4 13.66 17.4 27 24.32 27 24.32 25.6 18.88 25.6 18.88 20.42 24.16 20.42 24.16 19.02 18.88 19.02 18.88 15.06 24.32 15.06"></polygon>
                </g>
                <g id="E-you-select" transform="translate(40.000000, 0.000000)">
                    <g id="Icon/question-answer-bg-selected" fill="#232F84">
                        <circle id="Oval" cx="20" cy="20" r="20"></circle>
                    </g>
                    <polygon id="A" fill="#FFFFFF" points="24.32 13.66 17.4 13.66 17.4 27 24.32 27 24.32 25.6 18.88 25.6 18.88 20.42 24.16 20.42 24.16 19.02 18.88 19.02 18.88 15.06 24.32 15.06"></polygon>
                </g>
                <g id="E-this-is-correct" transform="translate(160.000000, 0.000000)">
                    <g id="Icon/question-answer-bg-this-is-correct" stroke="#3D9B35" stroke-width="4" fill="#FFFFFF">
                        <use id="Oval" mask="url(#mask-10)" xlink:href="#path-9"></use>
                    </g>
                    <polygon id="A" fill="#555555" points="24.32 13.66 17.4 13.66 17.4 27 24.32 27 24.32 25.6 18.88 25.6 18.88 20.42 24.16 20.42 24.16 19.02 18.88 19.02 18.88 15.06 24.32 15.06"></polygon>
                </g>
                <g id="E-you-got-wrong" transform="translate(80.000000, 0.000000)">
                    <g id="Icon/question-answer-bg-wrong" fill="#D6083B">
                        <circle id="Oval" cx="20" cy="20" r="20"></circle>
                    </g>
                    <polygon id="A" fill="#FFFFFF" points="24.32 13.66 17.4 13.66 17.4 27 24.32 27 24.32 25.6 18.88 25.6 18.88 20.42 24.16 20.42 24.16 19.02 18.88 19.02 18.88 15.06 24.32 15.06"></polygon>
                </g>
                <g id="E-you-got-correct" transform="translate(120.000000, 0.000000)">
                    <g id="Icon/question-answer-bg-correct" fill="#3D9B35">
                        <circle id="Oval" cx="20" cy="20" r="20"></circle>
                    </g>
                    <polygon id="A" fill="#FFFFFF" points="24.32 13.66 17.4 13.66 17.4 27 24.32 27 24.32 25.6 18.88 25.6 18.88 20.42 24.16 20.42 24.16 19.02 18.88 19.02 18.88 15.06 24.32 15.06"></polygon>
                </g>
            </g>
        </g>
    </g>
</svg>